# AST/ASF file generated using VICON BodyLanguage
# -----------------------------------------------
:version 1.10
:name VICON
:units
  mass 1.0
  length 0.45
  angle deg
:documentation
   .ast/.asf automatically generated from VICON data using
   VICON BodyBuilder and BodyLanguage model FoxedUp or BRILLIANT.MOD
:root
   order TX TY TZ RX RY RZ
   axis XYZ
   position 0 0 0  
   orientation 0 0 0 
:bonedata
  begin
     id 1 
     name lhipjoint
     direction 0.566809 -0.746272 0.349008 
     length 2.40479 
     axis 0 0 0  XYZ
  end
  begin
     id 2 
     name lfemur
     direction 0.34202 -0.939693 0  
     length 7.1578  
     axis 0 0 20  XYZ
    dof rx ry rz
    limits (-160.0 20.0)
           (-70.0 70.0)
           (-60.0 70.0)
  end
  begin
     id 3 
     name ltibia
     direction 0.34202 -0.939693 0   
     length 7.49137   
     axis 0 0 20   XYZ
    dof rx
    limits (-10.0 170.0)
  end
  begin
     id 4 
     name lfoot
     direction 0.0665746 -0.182912 0.980873   
     length 2.36784   
     axis -90 7.62852e-016 20   XYZ
    dof rx rz
    limits (-45.0 90.0)
           (-70.0 20.0)
  end
  begin
     id 5 
     name ltoes
     direction 1.53601e-011 -4.22058e-011 1   
     length 1.18966   
     axis -90 7.62852e-016 20   XYZ
    dof rx
    limits (-90.0 20.0)
  end
  begin
     id 6 
     name rhipjoint
     direction -0.550236 -0.756381 0.353735   
     length 2.37265  
     axis 0 0 0  XYZ 
  end
  begin
     id 7 
     name rfemur
     direction -0.34202 -0.939693 0   
     length 7.43386   
     axis 0 0 -20   XYZ
    dof rx ry rz
    limits (-160.0 20.0)
           (-70.0 70.0)
           (-70.0 60.0)
  end
  begin
     id 8 
     name rtibia
     direction -0.34202 -0.939693 0   
     length 7.50908   
     axis 0 0 -20   XYZ
    dof rx
    limits (-10.0 170.0)
 end
 begin
     id 9 
     name rfoot
     direction -0.0683029 -0.187661 0.979856   
     length 2.41173  
     axis -90 -7.62852e-016 -20   XYZ
    dof rx rz
    limits (-45.0 90.0)
           (-20.0 70.0)
  end
  begin
     id 10 
     name rtoes
     direction -1.53528e-011 -4.21968e-011 1   
     length 1.21082   
     axis -90 -7.62852e-016 -20   XYZ
    dof rx
    limits (-90.0 20.0)
  end
  begin
     id 11 
     name lowerback
     direction 0.013823 0.995423 -0.0945635   
     length 2.04495   
     axis 0 0 0   XYZ
    dof rx ry rz
    limits (-20.0 45.0)
           (-30.0 30.0)
           (-30.0 30.0)
  end
  begin
     id 12 
     name upperback
     direction 0.0276657 0.9994 -0.020853   
     length 2.05008   
     axis 0 0 0   XYZ
    dof rx ry rz
    limits (-20.0 45.0)
           (-30.0 30.0)
           (-30.0 30.0)
  end
  begin
     id 13 
     name thorax
     direction 0.019782 0.999531 0.0233827   
     length 2.06488   
     axis 0 0 0   XYZ
    dof rx ry rz
    limits (-20.0 45.0)
           (-30.0 30.0)
           (-30.0 30.0)
  end
  begin
     id 14 
     name lowerneck
     direction -0.0308541 0.994709 0.0979874   
     length 1.75553   
     axis 0 0 0   XYZ
    dof rx ry rz
    limits (-20.0 45.0)
           (-30.0 30.0)
           (-30.0 30.0)
  end
  begin
     id 15 
     name upperneck
     direction 0.0588398 0.995804 -0.0700903   
     length 1.76878   
     axis 0 0 0   XYZ
    dof rx ry rz
    limits (-20.0 45.0)
           (-30.0 30.0)
           (-30.0 30.0)
  end
  begin
     id 16
     name head
     direction 0.0209966 0.999159 -0.0352225  
     length 1.77193  
     axis 0 0 0   XYZ
    dof rx ry rz
    limits (-20.0 45.0)
           (-30.0 30.0)
           (-30.0 30.0)
  end
  begin
     id 17 
     name lclavicle
     direction 0.938182 0.335073 -0.0868338  
     length 3.58396  
     axis 0 0 0   XYZ
    dof ry rz
    limits (-20.0 10.0)
           (0.0 20.0)
  end
  begin
     id 18 
     name lhumerus
     direction 1 -4.48971e-011 -1.26313e-017   
     length 4.983   
     axis 180 -30 -90   XYZ
    dof rx ry rz
    limits (-60.0 90.0)
           (-90.0 90.0)
           (-90.0 90.0)
  end
  begin
     id 19
     name lradius
     direction 1 -4.48948e-011 -5.89033e-027   
     length 3.48356   
     axis 180 -30 -90   XYZ
    dof rx
    limits (-10.0 170.0)
  end
  begin
     id 20
     name lwrist
     direction 1 -4.48977e-011 -1.48983e-026   
     length 1.74178   
     axis 9.0955e-015 90 90   XYZ
    dof ry
    limits (-180.0 0.0)
 end
  begin
     id 21 
     name lhand
     direction 1 -4.49046e-011 -2.98066e-026   
     length 0.715259   
     axis 1.90115e-014 90 90   XYZ
    dof rx rz
    limits (-90.0 90.0)
           (-45.0 45.0)
  end
  begin
     id 22 
     name lfingers
     direction 1 -4.48907e-011 -5.95731e-026   
     length 0.576661   
     axis 3.80223e-014 90 90   XYZ
    dof rx
    limits (0.0 90.0)
  end
  begin
     id 23
     name lthumb
     direction 0.707107 -6.34963e-011 0.707107   
     length 0.827973   
     axis -90 45 -3.84942e-014   XYZ
    dof rx rz
    limits (-45.0 45.0)
           (-45.0 45.0)
  end
  begin
     id 24 
     name rclavicle
     direction -0.909637 0.398485 -0.11735   
     length 3.44819  
     axis 0 0 0   XYZ 
    dof ry rz
    limits (-10.0 20.0)
           (-20.0 0.0)
  end
  begin
     id 25 
     name rhumerus
     direction -1 -4.48978e-011 -1.09333e-027  
     length 5.2419   
     axis 180 30 90   XYZ
    dof rx ry rz
    limits (-90.0 60.0)
           (-90.0 90.0)
           (-90.0 90.0)
  end
  begin
     id 26 
     name rradius
     direction -1 -4.48953e-011 -7.61841e-027   
     length 3.44417   
     axis 180 30 90   XYZ
    dof rx
    limits (-10.0 170.0)
  end
  begin
     id 27 
     name rwrist
     direction -1 -4.48977e-011 -1.48983e-026   
     length 1.72209   
     axis 9.0955e-015 -90 -90   XYZ
    dof ry
    limits (-180.0 0.0)
  end
  begin
     id 28
     name rhand
     direction -1 -4.49027e-011 -2.98038e-026   
     length 0.622529   
     axis 1.90115e-014 -90 -90   XYZ
    dof rx rz
    limits (-90.0 90.0)
           (-45.0 45.0)
  end
  begin
     id 29
     name rfingers
     direction -1 -4.48838e-011 -5.95531e-026   
     length 0.501899   
     axis 3.80223e-014 -90 -90   XYZ
    dof rx
    limits (0.0 90.0)
  end
  begin
     id 30
     name rthumb
     direction -0.707107 -6.34937e-011 0.707107   
     length 0.720629   
     axis -90 -45 3.84942e-014   XYZ
    dof rx rz
    limits (-45.0 45.0)
           (-45.0 45.0)
  end
:hierarchy
  begin
    root lhipjoint rhipjoint lowerback
    lhipjoint lfemur
    lfemur ltibia
    ltibia lfoot
    lfoot ltoes
    rhipjoint rfemur
    rfemur rtibia
    rtibia rfoot
    rfoot rtoes
    lowerback upperback
    upperback thorax
    thorax lowerneck lclavicle rclavicle
    lowerneck upperneck
    upperneck head
    lclavicle lhumerus
    lhumerus lradius
    lradius lwrist
    lwrist lhand lthumb
    lhand lfingers
    rclavicle rhumerus
    rhumerus rradius
    rradius rwrist
    rwrist rhand rthumb
    rhand rfingers
  end

#!OML:ASF F:\VICON\USERDATA\Patient Classification 1\PLAYGROUND\JustinFriday\JustinFriday.ASF
:FULLY-SPECIFIED
:DEGREES
548
root 39.3523 22.0528 -10.8031 36.2841 -82.9055 -21.3486
lowerback 37.2751 1.60432 3.9568
upperback 6.81264 3.31591 5.24049
thorax -10.9797 1.02411 2.26901
lowerneck -16.3047 -3.09667 -3.5978
upperneck -16.7787 -4.41634 2.91619
head -2.60544 -2.5378 1.46169
rclavicle 0 1.59028e-015
rhumerus 27.4817 16.2876 -74.6926
rradius 48.7869
rwrist 18.2358
rhand -35.7874 -7.86575
rfingers 7.12502
rthumb -8.90468 -37.6579
lclavicle 0 1.59028e-015
lhumerus 37.8532 -16.7779 57.0957
lradius 70.1013
lwrist -22.5968
lhand -45.8258 -35.9501
lfingers 7.12502
lthumb -18.5781 -6.81729
rfemur -42.8081 -3.20909 30.5024
rtibia 51.072
rfoot -25.3804 -11.0795
rtoes 14.751
lfemur -55.2307 12.2246 -14.8422
ltibia 88.4997
lfoot -15.6142 -5.21669
ltoes 8.27181
549
root 39.3372 22.1118 -10.8117 36.3955 -82.4385 -21.6676
lowerback 37.4055 1.24621 4.38383
upperback 6.96459 3.01276 5.31848
thorax -10.8225 0.867766 2.25592
lowerneck -16.8939 -3.93131 -4.9673
upperneck -16.0913 -5.11499 5.03479
head -2.1657 -2.83055 2.34512
rclavicle -1.43125e-014 -3.57812e-014
rhumerus 27.2334 17.6653 -73.3568
rradius 49.4066
rwrist 16.7953
rhand -36.4505 -8.26558
rfingers 7.12502
rthumb -9.54452 -38.0294
lclavicle -1.43125e-014 -3.57812e-014
lhumerus 39.1948 -15.5066 58.5762
lradius 70.688
lwrist -25.0594
lhand -46.6052 -28.2377
lfingers 7.12502
lthumb -19.3277 0.821843
rfemur -41.9818 -3.6648 30.7829
rtibia 49.8967
rfoot -24.8797 -10.9171
rtoes 14.5753
lfemur -56.783 12.5979 -14.739
ltibia 90.7032
lfoot -16.1823 -6.4734
ltoes 8.9856
550
root 39.333 22.1688 -10.8369 34.6929 -81.9658 -20.1499
lowerback 37.8911 1.13841 4.46538
upperback 6.87888 2.95011 5.32124
thorax -11.0858 0.829537 2.24087
lowerneck -16.7121 -3.73983 -4.81573
upperneck -16.1489 -4.90914 4.67245
head -2.23693 -2.72808 2.2109
rclavicle -9.54166e-015 -4.13472e-014
rhumerus 27.2094 17.4356 -73.3531
rradius 48.9596
rwrist 16.7267
rhand -36.8883 -8.18998
rfingers 7.12502
rthumb -9.96689 -37.934
lclavicle -9.54166e-015 -4.13472e-014
lhumerus 40.3894 -14.8291 58.2623
lradius 71.6717
lwrist -25.8743
lhand -48.8748 -25.4023
lfingers 7.12502
lthumb -21.5088 3.42348
rfemur -41.1903 -4.02987 30.8993
rtibia 48.7473
rfoot -24.5898 -10.9185
rtoes 15.0237
lfemur -58.3831 13.1578 -14.8568
ltibia 92.7965
lfoot -16.8603 -7.43708
ltoes 8.09506
551
root 39.3269 22.2206 -10.87 34.5178 -81.5296 -20.1093
lowerback 38.0275 1.39295 4.42462
upperback 6.98418 3.26669 5.53975
thorax -11.0408 0.966965 2.36681
lowerneck -17.4016 -4.22459 -4.34819
upperneck -14.9605 -5.59538 4.28817
head -1.71351 -3.06601 1.91975
rclavicle 5.725e-014 5.40694e-014
rhumerus 27.3236 16.4362 -73.5203
rradius 48.1996
rwrist 17.0726
rhand -37.2219 -7.79599
rfingers 7.12502
rthumb -10.2887 -37.5243
lclavicle 5.725e-014 5.40694e-014
lhumerus 41.1801 -14.9217 56.4813
lradius 74.6259
lwrist -23.2253
lhand -49.1753 -25.0857
lfingers 7.12502
lthumb -21.7973 3.70687
rfemur -40.4405 -4.13192 31.2046
rtibia 47.5922
rfoot -24.2385 -11.144
rtoes 15.2887
lfemur -59.9805 13.5497 -14.6805
ltibia 94.7846
lfoot -17.5823 -8.44794
ltoes 8.04273
552
root 39.3164 22.281 -10.8933 34.8287 -80.944 -20.7559
lowerback 38.7321 0.903572 5.43106
upperback 6.82737 3.03849 4.93838
thorax -11.3418 0.828295 1.28853
lowerneck -16.3232 -4.01029 -3.80794
upperneck -15.7186 -5.40317 4.46194
head -2.15105 -3.0065 1.94013
rclavicle 6.67916e-014 4.69132e-014
rhumerus 26.6655 16.0435 -74.532
rradius 48.064
rwrist 16.9904
rhand -37.644 -7.6249
rfingers 7.12502
rthumb -10.6959 -37.3326
lclavicle 6.67916e-014 4.69132e-014
lhumerus 42.6191 -14.7801 54.4435
lradius 75.8974
lwrist -21.1125
lhand -49.3763 -24.922
lfingers 7.12502
lthumb -21.9903 3.84792
rfemur -39.5102 -4.4372 31.601
rtibia 46.4549
rfoot -23.7571 -11.1503
rtoes 15.6524
lfemur -61.3419 13.6385 -14.3415
ltibia 96.6481
lfoot -18.489 -9.54125
ltoes 7.45743
553
root 39.3062 22.3489 -10.9146 33.6671 -80.5525 -19.9654
lowerback 39.324 0.918541 5.46742
upperback 6.85447 3.10963 5.02381
thorax -11.5171 0.844126 1.33211
lowerneck -15.82 -4.0761 -3.96697
upperneck -16.3297 -5.48811 4.54191
head -2.4315 -3.05489 2.02318
rclavicle 3.57812e-014 4.53229e-014
rhumerus 26.5507 15.7108 -74.4225
rradius 47.6473
rwrist 17.0498
rhand -37.7894 -7.07745
rfingers 7.12502
rthumb -10.8362 -36.7779
lclavicle 3.57812e-014 4.53229e-014
lhumerus 45.3507 -13.5482 58.3374
lradius 73.7039
lwrist -23.4062
lhand -48.7256 -25.0406
lfingers 7.12502
lthumb -21.3655 3.80149
rfemur -38.5331 -4.84112 31.6786
rtibia 45.3463
rfoot -23.2072 -11.0131
rtoes 16.2386
lfemur -62.5154 13.6319 -14.357
ltibia 98.3531
lfoot -19.4434 -10.2583
ltoes 6.35878
554
root 39.2926 22.4042 -10.9342 34.5332 -80.3824 -20.7398
lowerback 38.9231 1.35215 5.27084
upperback 7.17904 3.52714 5.34056
thorax -11.0504 1.04069 1.60325
lowerneck -16.5367 -4.16954 -3.63711
upperneck -16.1188 -5.73156 3.64037
head -2.27442 -3.18539 1.6348
rclavicle -6.36111e-014 -8.50798e-014
rhumerus 26.9849 14.898 -73.9498
rradius 46.9964
rwrist 17.2405
rhand -37.5801 -6.45595
rfingers 7.12502
rthumb -10.6343 -36.1669
lclavicle -6.36111e-014 -8.50798e-014
lhumerus 47.2924 -13.1409 57.8227
lradius 74.3047
lwrist -21.5933
lhand -48.5433 -26.0192
lfingers 7.12502
lthumb -21.1903 2.84262
rfemur -38.0555 -4.77867 31.923
rtibia 44.287
rfoot -22.6524 -10.9912
rtoes 16.6262
lfemur -64.2449 14.3466 -14.394
ltibia 99.9669
lfoot -20.0849 -11.0858
ltoes 6.368
555
root 39.2804 22.4518 -10.9533 35.8874 -80.0538 -21.9942
lowerback 39.1004 1.10025 6.34304
upperback 7.1053 3.55802 4.48777
thorax -11.0384 1.03556 0.11822
lowerneck -16.9233 -4.51161 -2.74899
upperneck -15.8472 -6.23086 4.44742
head -2.09948 -3.48482 1.70951
rclavicle 1.82882e-014 -2.38542e-015
rhumerus 26.5775 13.8458 -74.8942
rradius 46.8702
rwrist 17.0465
rhand -37.8179 -6.64714
rfingers 7.12502
rthumb -10.8637 -36.3461
lclavicle 1.82882e-014 -2.38542e-015
lhumerus 48.3206 -13.6396 53.1786
lradius 78.4706
lwrist -20.2671
lhand -48.1369 -14.8119
lfingers 7.12502
lthumb -20.7999 14.0932
rfemur -37.6557 -4.68298 32.3102
rtibia 43.2975
rfoot -22.0731 -11.1839
rtoes 16.4447
lfemur -66.0947 14.8202 -14.3082
ltibia 101.485
lfoot -20.6656 -11.9497
ltoes 6.38938
556
root 39.2698 22.4988 -10.9739 35.5627 -79.6169 -21.924
lowerback 39.5959 1.26185 5.72165
upperback 6.94628 3.67784 5.36913
thorax -11.5123 1.07924 1.33381
lowerneck -15.3866 -4.51257 -4.70609
upperneck -16.4242 -5.91742 5.09148
head -2.47855 -3.23155 2.33408
rclavicle 2.22639e-014 1.19271e-014
rhumerus 26.7257 14.6146 -74.1336
rradius 46.135
rwrist 16.9511
rhand -38.4377 -6.8867
rfingers 7.12502
rthumb -11.4614 -36.5534
lclavicle 2.22639e-014 1.19271e-014
lhumerus 49.7338 -12.3364 57.0561
lradius 75.8921
lwrist -20.7768
lhand -47.8555 -20.1743
lfingers 7.12502
lthumb -20.5296 8.76019
rfemur -36.9179 -4.99101 32.5565
rtibia 42.365
rfoot -21.4921 -11.1693
rtoes 16.7223
lfemur -67.5429 15.085 -14.3801
ltibia 102.878
lfoot -20.8792 -13.1081
ltoes 7.43273
557
root 39.2522 22.5531 -10.9849 34.1521 -79.3713 -20.8775
lowerback 40.1085 1.12827 5.85862
upperback 7.01292 3.58092 5.34623
thorax -11.5937 1.01905 1.27979
lowerneck -15.0061 -4.36011 -5.17212
upperneck -16.87 -5.66874 5.12761
head -2.69731 -3.0875 2.46437
rclavicle 3.33958e-014 1.43125e-014
rhumerus 27.422 13.707 -75.1241
rradius 44.7175
rwrist 17.9772
rhand -39.7228 -7.34
rfingers 7.12502
rthumb -12.7005 -36.9338
lclavicle 3.33958e-014 1.43125e-014
lhumerus 52.3137 -11.0061 60.2108
lradius 72.1339
lwrist -19.9087
lhand -47.7111 -36.6443
lfingers 7.12502
lthumb -20.3908 -7.69484
rfemur -36.0867 -5.52005 32.5082
rtibia 41.5525
rfoot -21.0261 -10.8595
rtoes 17.2594
lfemur -68.6193 15.1892 -14.7499
ltibia 104.071
lfoot -21.1465 -13.8142
ltoes 8.73993
558
root 39.2328 22.6076 -11.0055 33.3169 -79.4896 -20.1436
lowerback 40.1757 1.15294 5.45193
upperback 7.13339 3.4339 5.39048
thorax -11.5136 0.962694 1.60044
lowerneck -15.5341 -4.8594 -6.25729
upperneck -15.9626 -6.0562 6.21009
head -2.21148 -3.22009 2.96385
rclavicle 1.03368e-014 -3.97569e-015
rhumerus 27.5323 14.0183 -75.0299
rradius 44.4023
rwrist 17.9868
rhand -41.068 -8.3141
rfingers 7.12502
rthumb -13.9971 -37.8229
lclavicle 1.03368e-014 -3.97569e-015
lhumerus 53.1766 -10.0796 57.6524
lradius 72.9082
lwrist -17.2631
lhand -47.5422 -33.7199
lfingers 7.12502
lthumb -20.2285 -4.75317
rfemur -35.4202 -5.5289 32.4034
rtibia 40.636
rfoot -20.467 -10.9625
rtoes 17.5852
lfemur -69.8097 15.6804 -15.2093
ltibia 105.064
lfoot -21.8037 -14.368
ltoes 8.8052
559
root 39.228 22.626 -11.0636 35.7231 -79.684 -21.4979
lowerback 38.7643 1.73921 4.52362
upperback 7.06901 3.7669 5.55088
thorax -11.2043 1.17508 2.11408
lowerneck -14.2156 -4.58777 -5.94116
upperneck -16.8368 -5.84329 5.67233
head -2.76828 -3.13472 2.80228
rclavicle 1.59028e-015 1.98785e-014
rhumerus 26.9118 14.1435 -74.6811
rradius 44.6865
rwrist 17.5317
rhand -40.7232 -7.92691
rfingers 7.12502
rthumb -13.6649 -37.4583
lclavicle 1.59028e-015 1.98785e-014
lhumerus 53.6443 -9.59015 55.0824
lradius 74.6237
lwrist -15.1498
lhand -47.5994 -30.8964
lfingers 7.12502
lthumb -20.2835 -1.93551
rfemur -36.0935 -4.57065 32.9277
rtibia 39.8617
rfoot -19.9839 -11.2591
rtoes 19.1842
lfemur -72.7486 17.1021 -15.4243
ltibia 106.221
lfoot -22.0922 -15.751
ltoes 8.57165
560
root 39.2048 22.7038 -11.0489 32.8255 -79.0175 -20.012
lowerback 40.6638 1.22293 5.26016
upperback 7.18574 3.46647 5.43275
thorax -11.6329 0.970616 1.73042
lowerneck -14.2988 -4.73318 -5.64908
upperneck -16.7695 -6.07452 5.63613
head -2.72469 -3.26738 2.72413
rclavicle 4.45278e-014 -1.59028e-015
rhumerus 26.8841 14.0518 -74.5434
rradius 44.6108
rwrist 17.1425
rhand -40.3263 -7.22667
rfingers 7.12502
rthumb -13.2823 -36.7834
lclavicle 4.45278e-014 -1.59028e-015
lhumerus 56.1412 -8.70908 56.729
lradius 72.1299
lwrist -16.4448
lhand -45.8398 -31.482
lfingers 7.12502
lthumb -18.5916 -2.35039
rfemur -34.0728 -5.48654 32.6236
rtibia 38.951
rfoot -19.8531 -10.8116
rtoes 20.7314
lfemur -72.3574 16.2559 -15.6117
ltibia 106.933
lfoot -23.0556 -15.5027
ltoes 7.62696
